<svg xmlns="http://www.w3.org/2000/svg" xmlns:xlink="http://www.w3.org/1999/xlink" width="500" zoomAndPan="magnify" viewBox="0 0 375 374.999991" height="500" preserveAspectRatio="xMidYMid meet" version="1.0"><defs><clipPath id="id1"><path d="M 70 13 L 232 13 L 232 324 L 70 324 Z M 70 13 " clip-rule="nonzero"/></clipPath><clipPath id="id2"><path d="M 44.179688 27.832031 L 230.078125 10 L 258.507812 306.390625 L 72.609375 324.222656 Z M 44.179688 27.832031 " clip-rule="nonzero"/></clipPath><clipPath id="id3"><path d="M 44.179688 27.832031 L 230.078125 10 L 258.507812 306.390625 L 72.609375 324.222656 Z M 44.179688 27.832031 " clip-rule="nonzero"/></clipPath></defs><path stroke-linecap="round" transform="matrix(26.251315, 0.000000000000004798, -0.000000000000004798, 26.249998, 70.877652, 324.374979)" fill="none" stroke-linejoin="miter" d="M 0.500023 0.000000811452 L 8.385491 0.000000811452 " stroke="rgb(85.099792%, 85.099792%, 85.099792%)" stroke-width="1" stroke-opacity="1" stroke-miterlimit="4"/><g clip-path="url(#id1)"><g clip-path="url(#id2)"><g clip-path="url(#id3)"><path fill="rgb(85.099792%, 85.099792%, 85.099792%)" d="M 71.273438 266.824219 L 181.960938 24.050781 C 183.902344 19.796875 187.453125 16.488281 191.832031 14.851562 C 196.207031 13.214844 201.054688 13.386719 205.3125 15.328125 C 210.460938 17.679688 216.351562 20.367188 221.5 22.71875 C 225.753906 24.660156 229.0625 28.210938 230.695312 32.589844 C 232.332031 36.972656 232.160156 41.824219 230.222656 46.078125 L 119.53125 288.851562 C 119.386719 289.183594 119.175781 289.496094 118.910156 289.773438 L 118.863281 289.816406 L 118.808594 289.871094 C 118.75 289.929688 118.683594 289.980469 118.621094 290.03125 L 77.851562 322.957031 C 76.945312 323.6875 75.703125 323.84375 74.644531 323.363281 C 73.585938 322.878906 72.886719 321.835938 72.847656 320.671875 L 70.976562 268.289062 C 70.972656 268.207031 70.972656 268.125 70.972656 268.039062 L 70.976562 267.964844 L 70.984375 267.898438 C 71.015625 267.515625 71.113281 267.152344 71.273438 266.824219 Z M 77.246094 271.382812 L 78.53125 307.417969 L 79.933594 304.347656 C 80.636719 302.800781 82.464844 302.117188 84.007812 302.824219 C 85.554688 303.53125 86.234375 305.355469 85.53125 306.902344 L 84.128906 309.976562 L 112.175781 287.324219 L 97.898438 272.363281 Z M 115.796875 282.207031 L 212.84375 69.359375 L 175.78125 52.441406 L 78.734375 265.289062 L 99.417969 266.273438 C 100.207031 266.3125 100.949219 266.652344 101.496094 267.222656 Z M 178.335938 46.839844 L 215.394531 63.757812 L 217.707031 58.6875 L 180.644531 41.773438 Z M 220.261719 53.085938 L 224.621094 43.519531 C 225.882812 40.753906 225.996094 37.597656 224.929688 34.746094 C 223.867188 31.894531 221.714844 29.582031 218.945312 28.320312 C 213.796875 25.96875 207.90625 23.28125 202.757812 20.929688 C 199.988281 19.667969 196.832031 19.554688 193.984375 20.621094 C 191.132812 21.683594 188.824219 23.839844 187.5625 26.609375 L 183.199219 36.171875 Z M 220.261719 53.085938 " fill-opacity="1" fill-rule="evenodd"/></g></g></g></svg>
